<?xml version="1.0" encoding="UTF-8" standalone="no"?>
<!DOCTYPE svg PUBLIC "-//W3C//DTD SVG 1.1//EN"
 "http://www.w3.org/Graphics/SVG/1.1/DTD/svg11.dtd">
<!-- Generated by graphviz version 2.43.0 (0)
 -->
<!-- Title: AudioDriver.hpp Pages: 1 -->
<svg width="458pt" height="137pt"
 viewBox="0.00 0.00 457.66 137.00" xmlns="http://www.w3.org/2000/svg" xmlns:xlink="http://www.w3.org/1999/xlink">
<g id="graph0" class="graph" transform="scale(1 1) rotate(0) translate(4 133)">
<title>AudioDriver.hpp</title>
<!-- Node1 -->
<g id="Node000001" class="node">
<title>Node1</title>
<g id="a_Node000001"><a xlink:title="Abstract interface for audio backend implementations.">
<polygon fill="#999999" stroke="#666666" points="159.66,-129 64.66,-129 64.66,-110 159.66,-110 159.66,-129"/>
<text text-anchor="middle" x="112.16" y="-117" font-family="Helvetica,sans-Serif" font-size="10.00">AudioDriver.hpp</text>
</a>
</g>
</g>
<!-- Node2 -->
<g id="Node000002" class="node">
<title>Node2</title>
<g id="a_Node000002"><a xlink:title=" ">
<polygon fill="#e0e0e0" stroke="#999999" points="161.16,-19 117.16,-19 117.16,0 161.16,0 161.16,-19"/>
<text text-anchor="middle" x="139.16" y="-7" font-family="Helvetica,sans-Serif" font-size="10.00">string</text>
</a>
</g>
</g>
<!-- Node1&#45;&gt;Node2 -->
<g id="edge1_Node000001_Node000002" class="edge">
<title>Node1&#45;&gt;Node2</title>
<g id="a_edge1_Node000001_Node000002"><a xlink:title=" ">
<path fill="none" stroke="#63b8ff" d="M68.7,-109.97C30.92,-100.49 -14.87,-82.76 5.16,-55 28.23,-23.03 75.2,-13.67 106.93,-11.12"/>
<polygon fill="#63b8ff" stroke="#63b8ff" points="107.29,-14.61 117.06,-10.5 106.86,-7.62 107.29,-14.61"/>
</a>
</g>
</g>
<!-- Node3 -->
<g id="Node000003" class="node">
<title>Node3</title>
<g id="a_Node000003"><a xlink:title=" ">
<polygon fill="#e0e0e0" stroke="#999999" points="70.16,-74 14.16,-74 14.16,-55 70.16,-55 70.16,-74"/>
<text text-anchor="middle" x="42.16" y="-62" font-family="Helvetica,sans-Serif" font-size="10.00">optional</text>
</a>
</g>
</g>
<!-- Node1&#45;&gt;Node3 -->
<g id="edge2_Node000001_Node000003" class="edge">
<title>Node1&#45;&gt;Node3</title>
<g id="a_edge2_Node000001_Node000003"><a xlink:title=" ">
<path fill="none" stroke="#63b8ff" d="M100.92,-109.98C90.37,-102 74.36,-89.88 61.72,-80.31"/>
<polygon fill="#63b8ff" stroke="#63b8ff" points="63.7,-77.42 53.61,-74.17 59.47,-83 63.7,-77.42"/>
</a>
</g>
</g>
<!-- Node4 -->
<g id="Node000004" class="node">
<title>Node4</title>
<g id="a_Node000004"><a xlink:title=" ">
<polygon fill="#e0e0e0" stroke="#999999" points="135.66,-74 88.66,-74 88.66,-55 135.66,-55 135.66,-74"/>
<text text-anchor="middle" x="112.16" y="-62" font-family="Helvetica,sans-Serif" font-size="10.00">vector</text>
</a>
</g>
</g>
<!-- Node1&#45;&gt;Node4 -->
<g id="edge3_Node000001_Node000004" class="edge">
<title>Node1&#45;&gt;Node4</title>
<g id="a_edge3_Node000001_Node000004"><a xlink:title=" ">
<path fill="none" stroke="#63b8ff" d="M112.16,-109.75C112.16,-102.8 112.16,-92.85 112.16,-84.13"/>
<polygon fill="#63b8ff" stroke="#63b8ff" points="115.66,-84.09 112.16,-74.09 108.66,-84.09 115.66,-84.09"/>
</a>
</g>
</g>
<!-- Node5 -->
<g id="Node000005" class="node">
<title>Node5</title>
<g id="a_Node000005"><a xlink:title=" ">
<polygon fill="#e0e0e0" stroke="#999999" points="246.66,-74 153.66,-74 153.66,-55 246.66,-55 246.66,-74"/>
<text text-anchor="middle" x="200.16" y="-62" font-family="Helvetica,sans-Serif" font-size="10.00">unordered_map</text>
</a>
</g>
</g>
<!-- Node1&#45;&gt;Node5 -->
<g id="edge4_Node000001_Node000005" class="edge">
<title>Node1&#45;&gt;Node5</title>
<g id="a_edge4_Node000001_Node000005"><a xlink:title=" ">
<path fill="none" stroke="#63b8ff" d="M126.3,-109.98C139.95,-101.77 160.85,-89.18 176.94,-79.49"/>
<polygon fill="#63b8ff" stroke="#63b8ff" points="179.01,-82.33 185.77,-74.17 175.4,-76.33 179.01,-82.33"/>
</a>
</g>
</g>
<!-- Node6 -->
<g id="Node000006" class="node">
<title>Node6</title>
<g id="a_Node000006"><a xlink:href="AudioTypes_8hpp.html" target="_top" xlink:title="Declares POD types used by the audio subsystem.">
<polygon fill="white" stroke="#666666" points="449.66,-74 264.66,-74 264.66,-55 449.66,-55 449.66,-74"/>
<text text-anchor="middle" x="357.16" y="-62" font-family="Helvetica,sans-Serif" font-size="10.00">../../includes/types/AudioTypes.hpp</text>
</a>
</g>
</g>
<!-- Node1&#45;&gt;Node6 -->
<g id="edge5_Node000001_Node000006" class="edge">
<title>Node1&#45;&gt;Node6</title>
<g id="a_edge5_Node000001_Node000006"><a xlink:title=" ">
<path fill="none" stroke="#63b8ff" d="M151.53,-109.98C193.91,-100.82 261.42,-86.21 307.44,-76.26"/>
<polygon fill="#63b8ff" stroke="#63b8ff" points="308.46,-79.62 317.49,-74.08 306.98,-72.78 308.46,-79.62"/>
</a>
</g>
</g>
<!-- Node6&#45;&gt;Node2 -->
<g id="edge7_Node000006_Node000002" class="edge">
<title>Node6&#45;&gt;Node2</title>
<g id="a_edge7_Node000006_Node000002"><a xlink:title=" ">
<path fill="none" stroke="#63b8ff" d="M322.14,-54.98C280.51,-44.86 211.62,-28.11 171.3,-18.31"/>
<polygon fill="#63b8ff" stroke="#63b8ff" points="172,-14.88 161.46,-15.92 170.35,-21.68 172,-14.88"/>
</a>
</g>
</g>
<!-- Node7 -->
<g id="Node000007" class="node">
<title>Node7</title>
<g id="a_Node000007"><a xlink:title=" ">
<polygon fill="#e0e0e0" stroke="#999999" points="382.16,-19 332.16,-19 332.16,0 382.16,0 382.16,-19"/>
<text text-anchor="middle" x="357.16" y="-7" font-family="Helvetica,sans-Serif" font-size="10.00">cstdint</text>
</a>
</g>
</g>
<!-- Node6&#45;&gt;Node7 -->
<g id="edge6_Node000006_Node000007" class="edge">
<title>Node6&#45;&gt;Node7</title>
<g id="a_edge6_Node000006_Node000007"><a xlink:title=" ">
<path fill="none" stroke="#63b8ff" d="M357.16,-54.75C357.16,-47.8 357.16,-37.85 357.16,-29.13"/>
<polygon fill="#63b8ff" stroke="#63b8ff" points="360.66,-29.09 357.16,-19.09 353.66,-29.09 360.66,-29.09"/>
</a>
</g>
</g>
</g>
</svg>
