<?xml version="1.0" encoding="UTF-8" standalone="no"?>
<!DOCTYPE svg PUBLIC "-//W3C//DTD SVG 1.1//EN"
 "http://www.w3.org/Graphics/SVG/1.1/DTD/svg11.dtd">
<!-- Generated by graphviz version 2.43.0 (0)
 -->
<!-- Title: asge::net::GameProtocol::seq_newer Pages: 1 -->
<svg width="936pt" height="27pt"
 viewBox="0.00 0.00 936.00 27.00" xmlns="http://www.w3.org/2000/svg" xmlns:xlink="http://www.w3.org/1999/xlink">
<g id="graph0" class="graph" transform="scale(1 1) rotate(0) translate(4 23)">
<title>asge::net::GameProtocol::seq_newer</title>
<!-- Node1 -->
<g id="Node000001" class="node">
<title>Node1</title>
<g id="a_Node000001"><a xlink:title=" ">
<polygon fill="#999999" stroke="#666666" points="928,-19 733,-19 733,0 928,0 928,-19"/>
<text text-anchor="middle" x="830.5" y="-7" font-family="Helvetica,sans-Serif" font-size="10.00">asge::net::GameProtocol::seq_newer</text>
</a>
</g>
</g>
<!-- Node2 -->
<g id="Node000002" class="node">
<title>Node2</title>
<g id="a_Node000002"><a xlink:href="classasge_1_1net_1_1GameProtocol.html#a6cce2dd001b1bd6f1737f22af0105e3a" target="_top" xlink:title=" ">
<polygon fill="white" stroke="#666666" points="697,-19 428,-19 428,0 697,0 697,-19"/>
<text text-anchor="middle" x="562.5" y="-7" font-family="Helvetica,sans-Serif" font-size="10.00">asge::net::GameProtocol::decodeComponentUpdate</text>
</a>
</g>
</g>
<!-- Node1&#45;&gt;Node2 -->
<g id="edge1_Node000001_Node000002" class="edge">
<title>Node1&#45;&gt;Node2</title>
<g id="a_edge1_Node000001_Node000002"><a xlink:title=" ">
<path fill="none" stroke="#63b8ff" d="M722.58,-9.5C714.2,-9.5 705.68,-9.5 697.15,-9.5"/>
<polygon fill="#63b8ff" stroke="#63b8ff" points="722.72,-13 732.72,-9.5 722.72,-6 722.72,-13"/>
</a>
</g>
</g>
<!-- Node3 -->
<g id="Node000003" class="node">
<title>Node3</title>
<g id="a_Node000003"><a xlink:href="classasge_1_1net_1_1GameProtocol.html#a8a438bd70a1411a39744bb59ef075598" target="_top" xlink:title=" ">
<polygon fill="white" stroke="#666666" points="392,-19 214,-19 214,0 392,0 392,-19"/>
<text text-anchor="middle" x="303" y="-7" font-family="Helvetica,sans-Serif" font-size="10.00">asge::net::GameProtocol::decode</text>
</a>
</g>
</g>
<!-- Node2&#45;&gt;Node3 -->
<g id="edge2_Node000002_Node000003" class="edge">
<title>Node2&#45;&gt;Node3</title>
<g id="a_edge2_Node000002_Node000003"><a xlink:title=" ">
<path fill="none" stroke="#63b8ff" d="M417.64,-9.5C408.98,-9.5 400.4,-9.5 392.08,-9.5"/>
<polygon fill="#63b8ff" stroke="#63b8ff" points="417.85,-13 427.85,-9.5 417.85,-6 417.85,-13"/>
</a>
</g>
</g>
<!-- Node4 -->
<g id="Node000004" class="node">
<title>Node4</title>
<g id="a_Node000004"><a xlink:href="classasge_1_1net_1_1GameProtocol.html#ae17ffaace339d06b6b8c14a0912a1da8" target="_top" xlink:title=" ">
<polygon fill="white" stroke="#666666" points="178,-19 0,-19 0,0 178,0 178,-19"/>
<text text-anchor="middle" x="89" y="-7" font-family="Helvetica,sans-Serif" font-size="10.00">asge::net::GameProtocol::decode</text>
</a>
</g>
</g>
<!-- Node3&#45;&gt;Node4 -->
<g id="edge3_Node000003_Node000004" class="edge">
<title>Node3&#45;&gt;Node4</title>
<g id="a_edge3_Node000003_Node000004"><a xlink:title=" ">
<path fill="none" stroke="#63b8ff" d="M203.89,-9.5C195.3,-9.5 186.64,-9.5 178.13,-9.5"/>
<polygon fill="#63b8ff" stroke="#63b8ff" points="203.93,-13 213.93,-9.5 203.93,-6 203.93,-13"/>
</a>
</g>
</g>
</g>
</svg>
