<?xml version="1.0" encoding="UTF-8" standalone="no"?>
<!DOCTYPE svg PUBLIC "-//W3C//DTD SVG 1.1//EN"
 "http://www.w3.org/Graphics/SVG/1.1/DTD/svg11.dtd">
<!-- Generated by graphviz version 2.43.0 (0)
 -->
<!-- Title: protocol::Protocol::handle_receive Pages: 1 -->
<!--zoomable 150 -->

<svg id="main" version="1.1" xmlns="http://www.w3.org/2000/svg" xmlns:xlink="http://www.w3.org/1999/xlink" xml:space="preserve" onload="init(evt)">
<style type="text/css"><![CDATA[
.node, .edge {opacity: 0.7;}
.node.selected, .edge.selected {opacity: 1;}
.edge:hover path { stroke: red; }
.edge:hover polygon { stroke: red; fill: red; }
]]></style>

<defs>
  <circle id="rim" cx="0" cy="0" r="7"/>
  <circle id="rim2" cx="0" cy="0" r="3.5"/>
  <g id="zoomPlus">
    <use xlink:href="#rim" fill="#404040"><set attributeName="fill" to="#808080" begin="zoomplus.mouseover" end="zoomplus.mouseout"/></use>
    <path d="M-4,0h8M0,-4v8" fill="none" stroke="white" stroke-width="1.5" pointer-events="none"/>
  </g>
  <g id="zoomMin">
    <use xlink:href="#rim" fill="#404040"><set attributeName="fill" to="#808080" begin="zoomminus.mouseover" end="zoomminus.mouseout"/></use>
    <path d="M-4,0h8" fill="none" stroke="white" stroke-width="1.5" pointer-events="none"/>
  </g>
  <g id="arrowUp" transform="translate(30 24)">
    <use xlink:href="#rim"/>
    <path pointer-events="none" fill="none" stroke="white" stroke-width="1.5" d="M0,-3.0v7 M-2.5,-0.5L0,-3.0L2.5,-0.5"/>
  </g>
  <g id="arrowRight" transform="rotate(90) translate(36 -43)">
    <use xlink:href="#rim"/>
    <path pointer-events="none" fill="none" stroke="white" stroke-width="1.5" d="M0,-3.0v7 M-2.5,-0.5L0,-3.0L2.5,-0.5"/>
  </g>
  <g id="arrowDown" transform="rotate(180) translate(-30 -48)">
    <use xlink:href="#rim"/>
    <path pointer-events="none" fill="none" stroke="white" stroke-width="1.5" d="M0,-3.0v7 M-2.5,-0.5L0,-3.0L2.5,-0.5"/>
  </g>
  <g id="arrowLeft" transform="rotate(270) translate(-36 17)">
    <use xlink:href="#rim"/>
    <path pointer-events="none" fill="none" stroke="white" stroke-width="1.5" d="M0,-3.0v7 M-2.5,-0.5L0,-3.0L2.5,-0.5"/>
  </g>
  <g id="resetDef">
    <use xlink:href="#rim2" fill="#404040"><set attributeName="fill" to="#808080" begin="reset.mouseover" end="reset.mouseout"/></use>
  </g>
</defs>
<script type="application/ecmascript">
var viewWidth = 598;
var viewHeight = 150;
var sectionId = 'dynsection-2';
</script>
<script type="application/ecmascript" xlink:href="svg.min.js"/>
<svg id="graph" class="graph">
<g id="viewport">
<title>protocol::Protocol::handle_receive</title>
<!-- Node1 -->
<g id="Node000001" class="node">
<title>Node1</title>
<g id="a_Node000001"><a xlink:title="Handle completion of an async receive.">
<polygon fill="#999999" stroke="#666666" points="182,-74 0,-74 0,-55 182,-55 182,-74"/>
<text text-anchor="middle" x="91" y="-62" font-family="Helvetica,sans-Serif" font-size="10.00">protocol::Protocol::handle_receive</text>
</a>
</g>
</g>
<!-- Node2 -->
<g id="Node000002" class="node">
<title>Node2</title>
<g id="a_Node000002"><a xlink:href="namespaceprotocol_1_1utils.html#afdcd44435a34419031d17e265fd32f4e" target="_top" xlink:title="Convert endpoint to unique textual key &quot;ip:port&quot;.">
<polygon fill="white" stroke="#666666" points="374.5,-141.5 242.5,-141.5 242.5,-111.5 374.5,-111.5 374.5,-141.5"/>
<text text-anchor="start" x="250.5" y="-129.5" font-family="Helvetica,sans-Serif" font-size="10.00">protocol::utils::endpoint</text>
<text text-anchor="middle" x="308.5" y="-118.5" font-family="Helvetica,sans-Serif" font-size="10.00">_to_string</text>
</a>
</g>
</g>
<!-- Node1&#45;&gt;Node2 -->
<g id="edge1_Node000001_Node000002" class="edge">
<title>Node1&#45;&gt;Node2</title>
<g id="a_edge1_Node000001_Node000002"><a xlink:title=" ">
<path fill="none" stroke="#63b8ff" d="M122.73,-74.06C148.2,-81.91 185.37,-93.21 218,-102.5 225.21,-104.55 232.76,-106.65 240.28,-108.72"/>
<polygon fill="#63b8ff" stroke="#63b8ff" points="239.56,-112.15 250.13,-111.4 241.4,-105.39 239.56,-112.15"/>
</a>
</g>
</g>
<!-- Node3 -->
<g id="Node000003" class="node">
<title>Node3</title>
<g id="a_Node000003"><a xlink:href="namespaceprotocol_1_1utils.html#a08505e4df49b2ca7b58ca0cf13459cc8" target="_top" xlink:title="Convert a network&#45;order 32&#45;bit value (big&#45;endian) to host byte order.">
<polygon fill="white" stroke="#666666" points="399,-93 218,-93 218,-74 399,-74 399,-93"/>
<text text-anchor="middle" x="308.5" y="-81" font-family="Helvetica,sans-Serif" font-size="10.00">protocol::utils::from_network_u32</text>
</a>
</g>
</g>
<!-- Node1&#45;&gt;Node3 -->
<g id="edge2_Node000001_Node000003" class="edge">
<title>Node1&#45;&gt;Node3</title>
<g id="a_edge2_Node000001_Node000003"><a xlink:title=" ">
<path fill="none" stroke="#63b8ff" d="M182.14,-72.45C190.6,-73.19 199.2,-73.95 207.74,-74.7"/>
<polygon fill="#63b8ff" stroke="#63b8ff" points="207.45,-78.19 217.72,-75.58 208.06,-71.22 207.45,-78.19"/>
</a>
</g>
</g>
<!-- Node4 -->
<g id="Node000004" class="node">
<title>Node4</title>
<g id="a_Node000004"><a xlink:href="Protocol_8cpp.html#ac315d8e991103f6f885eabe69801eb95" target="_top" xlink:title="Handle ordered&#45;delivery semantics for incoming packet.">
<polygon fill="white" stroke="#666666" points="377,-56 240,-56 240,-37 377,-37 377,-56"/>
<text text-anchor="middle" x="308.5" y="-44" font-family="Helvetica,sans-Serif" font-size="10.00">handle_ordered_delivery</text>
</a>
</g>
</g>
<!-- Node1&#45;&gt;Node4 -->
<g id="edge3_Node000001_Node000004" class="edge">
<title>Node1&#45;&gt;Node4</title>
<g id="a_edge3_Node000001_Node000004"><a xlink:title=" ">
<path fill="none" stroke="#63b8ff" d="M182.14,-56.97C197.94,-55.65 214.26,-54.29 229.69,-53"/>
<polygon fill="#63b8ff" stroke="#63b8ff" points="230.01,-56.48 239.69,-52.16 229.43,-49.51 230.01,-56.48"/>
</a>
</g>
</g>
<!-- Node7 -->
<g id="Node000007" class="node">
<title>Node7</title>
<g id="a_Node000007"><a xlink:href="Protocol_8cpp.html#a030fc36fea04b55ed306cf4cbeeebb11" target="_top" xlink:title="Update the peer ack window (last_received / ack_bits) for piggybacking.">
<polygon fill="white" stroke="#666666" points="380,-19 237,-19 237,0 380,0 380,-19"/>
<text text-anchor="middle" x="308.5" y="-7" font-family="Helvetica,sans-Serif" font-size="10.00">update_peer_ack_window</text>
</a>
</g>
</g>
<!-- Node1&#45;&gt;Node7 -->
<g id="edge6_Node000001_Node000007" class="edge">
<title>Node1&#45;&gt;Node7</title>
<g id="a_edge6_Node000001_Node000007"><a xlink:title=" ">
<path fill="none" stroke="#63b8ff" d="M121.84,-54.94C147.25,-46.99 184.8,-35.7 218,-27.5 227.14,-25.24 236.85,-23.07 246.38,-21.05"/>
<polygon fill="#63b8ff" stroke="#63b8ff" points="247.13,-24.47 256.21,-19.02 245.71,-17.62 247.13,-24.47"/>
</a>
</g>
</g>
<!-- Node5 -->
<g id="Node000005" class="node">
<title>Node5</title>
<g id="a_Node000005"><a xlink:href="Protocol_8cpp.html#a055f77a563e0c71065726449228d1d99" target="_top" xlink:title="Flush contiguous buffered packets starting at expected_sequence.">
<polygon fill="white" stroke="#666666" points="584.5,-56 440.5,-56 440.5,-37 584.5,-37 584.5,-56"/>
<text text-anchor="middle" x="512.5" y="-44" font-family="Helvetica,sans-Serif" font-size="10.00">flush_buffered_contiguous</text>
</a>
</g>
</g>
<!-- Node4&#45;&gt;Node5 -->
<g id="edge4_Node000004_Node000005" class="edge">
<title>Node4&#45;&gt;Node5</title>
<g id="a_edge4_Node000004_Node000005"><a xlink:title=" ">
<path fill="none" stroke="#63b8ff" d="M377.04,-46.5C394.01,-46.5 412.4,-46.5 429.98,-46.5"/>
<polygon fill="#63b8ff" stroke="#63b8ff" points="430.21,-50 440.21,-46.5 430.21,-43 430.21,-50"/>
</a>
</g>
</g>
<!-- Node6 -->
<g id="Node000006" class="node">
<title>Node6</title>
<g id="a_Node000006"><a xlink:href="namespaceprotocol_1_1utils.html#aced25561098b88bc01dcf9961d62c57d" target="_top" xlink:title="Helper: compare sequence numbers considering wrap&#45;around.">
<polygon fill="white" stroke="#666666" points="590,-19 435,-19 435,0 590,0 590,-19"/>
<text text-anchor="middle" x="512.5" y="-7" font-family="Helvetica,sans-Serif" font-size="10.00">protocol::utils::is_seq_newer</text>
</a>
</g>
</g>
<!-- Node4&#45;&gt;Node6 -->
<g id="edge5_Node000004_Node000006" class="edge">
<title>Node4&#45;&gt;Node6</title>
<g id="a_edge5_Node000004_Node000006"><a xlink:title=" ">
<path fill="none" stroke="#63b8ff" d="M361.52,-36.97C388.28,-32.07 421.08,-26.06 449.19,-20.91"/>
<polygon fill="#63b8ff" stroke="#63b8ff" points="450.1,-24.3 459.31,-19.06 448.84,-17.42 450.1,-24.3"/>
</a>
</g>
</g>
<!-- Node7&#45;&gt;Node6 -->
<g id="edge7_Node000007_Node000006" class="edge">
<title>Node7&#45;&gt;Node6</title>
<g id="a_edge7_Node000007_Node000006"><a xlink:title=" ">
<path fill="none" stroke="#63b8ff" d="M380.15,-9.5C394.48,-9.5 409.7,-9.5 424.52,-9.5"/>
<polygon fill="#63b8ff" stroke="#63b8ff" points="424.7,-13 434.7,-9.5 424.7,-6 424.7,-13"/>
</a>
</g>
</g>
</g>
</svg>

<g id="navigator" transform="translate(0 0)" fill="#404254">
  <rect fill="#f2f5e9" fill-opacity="0.5" stroke="#606060" stroke-width=".5" x="0" y="0" width="60" height="60"/>
  <use id="zoomplus" xlink:href="#zoomPlus" x="17" y="9" onmousedown="handleZoom(evt,'in')"/>
  <use id="zoomminus" xlink:href="#zoomMin" x="42" y="9" onmousedown="handleZoom(evt,'out')"/>
  <use id="reset" xlink:href="#resetDef" x="30" y="36" onmousedown="handleReset()"/>
   <use id="arrowup" xlink:href="#arrowUp" x="0" y="0" onmousedown="handlePan(0,-1)"/>
  <use id="arrowright" xlink:href="#arrowRight" x="0" y="0" onmousedown="handlePan(1,0)"/>
  <use id="arrowdown" xlink:href="#arrowDown" x="0" y="0" onmousedown="handlePan(0,1)"/>
  <use id="arrowleft" xlink:href="#arrowLeft" x="0" y="0" onmousedown="handlePan(-1,0)"/>
</g>
<svg viewBox="0 0 15 15" width="100%" height="30px" preserveAspectRatio="xMaxYMin meet">
 <g id="arrow_out" transform="scale(0.3 0.3)">
  <a xlink:href="classprotocol_1_1Protocol_a8775506ba36b376f91bd2d46c9bf4c2f_cgraph_org.svg" target="_base">
   <rect id="button" ry="5" rx="5" y="6" x="6" height="38" width="38"
        fill="#f2f5e9" fill-opacity="0.5" stroke="#606060" stroke-width="1.0"/>
   <path id="arrow"
     d="M 11.500037,31.436501 C 11.940474,20.09759 22.043105,11.32322 32.158766,21.979434 L 37.068811,17.246167 C 37.068811,17.246167 37.088388,32 37.088388,32 L 22.160133,31.978069 C 22.160133,31.978069 26.997745,27.140456 26.997745,27.140456 C 18.528582,18.264221 13.291696,25.230495 11.500037,31.436501 z"
     style="fill:#404040;"/>
  </a>
 </g>
</svg>

<style type='text/css'>
<![CDATA[
[data-mouse-over-selected='false'] { opacity: 0.7; }
[data-mouse-over-selected='true']  { opacity: 1.0; }
]]>
</style>
<script type="application/ecmascript"><![CDATA[
document.addEventListener('DOMContentLoaded', (event) => {
  highlightEdges();
  highlightAdjacentNodes();
});
]]></script>
</svg>
