<?xml version="1.0" encoding="UTF-8" standalone="no"?>
<!DOCTYPE svg PUBLIC "-//W3C//DTD SVG 1.1//EN"
 "http://www.w3.org/Graphics/SVG/1.1/DTD/svg11.dtd">
<!-- Generated by graphviz version 2.43.0 (0)
 -->
<!-- Title: rtype::ecs::CollisionWorld::collisionEffect Pages: 1 -->
<svg width="549pt" height="38pt"
 viewBox="0.00 0.00 549.00 38.00" xmlns="http://www.w3.org/2000/svg" xmlns:xlink="http://www.w3.org/1999/xlink">
<g id="graph0" class="graph" transform="scale(1 1) rotate(0) translate(4 34)">
<title>rtype::ecs::CollisionWorld::collisionEffect</title>
<!-- Node1 -->
<g id="Node000001" class="node">
<title>Node1</title>
<g id="a_Node000001"><a xlink:title="Default collision effect callback invoked when two entities overlap.">
<polygon fill="#999999" stroke="#666666" points="541,-30 401,-30 401,0 541,0 541,-30"/>
<text text-anchor="start" x="409" y="-18" font-family="Helvetica,sans-Serif" font-size="10.00">rtype::ecs::CollisionWorld</text>
<text text-anchor="middle" x="471" y="-7" font-family="Helvetica,sans-Serif" font-size="10.00">::collisionEffect</text>
</a>
</g>
</g>
<!-- Node2 -->
<g id="Node000002" class="node">
<title>Node2</title>
<g id="a_Node000002"><a xlink:href="classrtype_1_1ecs_1_1CollisionWorld.html#acba7533c8d42d6abb6c82fd03ee7b614" target="_top" xlink:title="Run narrow&#45;phase collision checks across the grid and call collisionEffect on hits.">
<polygon fill="white" stroke="#666666" points="365,-30 225,-30 225,0 365,0 365,-30"/>
<text text-anchor="start" x="233" y="-18" font-family="Helvetica,sans-Serif" font-size="10.00">rtype::ecs::CollisionWorld</text>
<text text-anchor="middle" x="295" y="-7" font-family="Helvetica,sans-Serif" font-size="10.00">::checkCollisions</text>
</a>
</g>
</g>
<!-- Node1&#45;&gt;Node2 -->
<g id="edge1_Node000001_Node000002" class="edge">
<title>Node1&#45;&gt;Node2</title>
<g id="a_edge1_Node000001_Node000002"><a xlink:title=" ">
<path fill="none" stroke="#63b8ff" d="M390.97,-15C382.38,-15 373.68,-15 365.22,-15"/>
<polygon fill="#63b8ff" stroke="#63b8ff" points="390.98,-18.5 400.98,-15 390.98,-11.5 390.98,-18.5"/>
</a>
</g>
</g>
<!-- Node3 -->
<g id="Node000003" class="node">
<title>Node3</title>
<g id="a_Node000003"><a xlink:href="classrtype_1_1ecs_1_1CollisionSystem.html#afca69e9015066f94f6fe7cab90899e44" target="_top" xlink:title="Run one collision pass: rebuild spatial grid and test collisions.">
<polygon fill="white" stroke="#666666" points="189,-24.5 0,-24.5 0,-5.5 189,-5.5 189,-24.5"/>
<text text-anchor="middle" x="94.5" y="-12.5" font-family="Helvetica,sans-Serif" font-size="10.00">rtype::ecs::CollisionSystem::update</text>
</a>
</g>
</g>
<!-- Node2&#45;&gt;Node3 -->
<g id="edge2_Node000002_Node000003" class="edge">
<title>Node2&#45;&gt;Node3</title>
<g id="a_edge2_Node000002_Node000003"><a xlink:title=" ">
<path fill="none" stroke="#63b8ff" d="M214.73,-15C206.33,-15 197.73,-15 189.19,-15"/>
<polygon fill="#63b8ff" stroke="#63b8ff" points="214.85,-18.5 224.85,-15 214.85,-11.5 214.85,-18.5"/>
</a>
</g>
</g>
</g>
</svg>
