<?xml version="1.0" encoding="UTF-8" standalone="no"?>
<!DOCTYPE svg PUBLIC "-//W3C//DTD SVG 1.1//EN"
 "http://www.w3.org/Graphics/SVG/1.1/DTD/svg11.dtd">
<!-- Generated by graphviz version 2.43.0 (0)
 -->
<!-- Title: rtype::client::ui::IOption Pages: 1 -->
<svg width="202pt" height="120pt"
 viewBox="0.00 0.00 202.00 120.00" xmlns="http://www.w3.org/2000/svg" xmlns:xlink="http://www.w3.org/1999/xlink">
<g id="graph0" class="graph" transform="scale(1 1) rotate(0) translate(4 116)">
<title>rtype::client::ui::IOption</title>
<!-- Node1 -->
<g id="Node000001" class="node">
<title>Node1</title>
<g id="a_Node000001"><a xlink:title="Interface representing a selectable option element in the UI.">
<polygon fill="#999999" stroke="transparent" points="194,-112 0,-112 0,0 194,0 194,-112"/>
<text text-anchor="start" x="39.5" y="-100" font-family="Helvetica,sans-Serif" font-size="10.00">rtype::client::ui::IOption</text>
<text text-anchor="start" x="95" y="-85" font-family="Helvetica,sans-Serif" font-size="10.00"> </text>
<text text-anchor="start" x="4" y="-70" font-family="Helvetica,sans-Serif" font-size="10.00">+</text>
<text text-anchor="start" x="17" y="-70" font-family="Helvetica,sans-Serif" font-size="10.00">virtual ~IOption()=default</text>
<text text-anchor="start" x="4" y="-55" font-family="Helvetica,sans-Serif" font-size="10.00">+</text>
<text text-anchor="start" x="17" y="-55" font-family="Helvetica,sans-Serif" font-size="10.00">virtual void update(asge::</text>
<text text-anchor="start" x="17" y="-44" font-family="Helvetica,sans-Serif" font-size="10.00">Services &amp;services, bool selected,</text>
<text text-anchor="start" x="17" y="-33" font-family="Helvetica,sans-Serif" font-size="10.00"> double dt)=0</text>
<text text-anchor="start" x="4" y="-18" font-family="Helvetica,sans-Serif" font-size="10.00">+</text>
<text text-anchor="start" x="17" y="-18" font-family="Helvetica,sans-Serif" font-size="10.00">virtual void draw(asge::Services</text>
<text text-anchor="start" x="17" y="-7" font-family="Helvetica,sans-Serif" font-size="10.00"> &amp;services, bool selected) const =0</text>
<polygon fill="#666666" stroke="#666666" points="0,-95 0,-95 194,-95 194,-95 0,-95"/>
<polygon fill="#666666" stroke="#666666" points="0,-80 0,-80 194,-80 194,-80 0,-80"/>
<polygon fill="none" stroke="#666666" points="0,0 0,-112 194,-112 194,0 0,0"/>
</a>
</g>
</g>
</g>
</svg>
