<?xml version="1.0" encoding="UTF-8" standalone="no"?>
<!DOCTYPE svg PUBLIC "-//W3C//DTD SVG 1.1//EN"
 "http://www.w3.org/Graphics/SVG/1.1/DTD/svg11.dtd">
<!-- Generated by graphviz version 2.43.0 (0)
 -->
<!-- Title: asge::net::GameProtocol::encodeEntityDestroy Pages: 1 -->
<svg width="1159pt" height="38pt"
 viewBox="0.00 0.00 1159.00 38.00" xmlns="http://www.w3.org/2000/svg" xmlns:xlink="http://www.w3.org/1999/xlink">
<g id="graph0" class="graph" transform="scale(1 1) rotate(0) translate(4 34)">
<title>asge::net::GameProtocol::encodeEntityDestroy</title>
<!-- Node1 -->
<g id="Node000001" class="node">
<title>Node1</title>
<g id="a_Node000001"><a xlink:title=" ">
<polygon fill="#999999" stroke="#666666" points="1151,-30 945,-30 945,0 1151,0 1151,-30"/>
<text text-anchor="start" x="953" y="-18" font-family="Helvetica,sans-Serif" font-size="10.00">asge::net::GameProtocol::encodeEntity</text>
<text text-anchor="middle" x="1048" y="-7" font-family="Helvetica,sans-Serif" font-size="10.00">Destroy</text>
</a>
</g>
</g>
<!-- Node2 -->
<g id="Node000002" class="node">
<title>Node2</title>
<g id="a_Node000002"><a xlink:href="namespaceasge_1_1network_1_1EngineProtocol.html#ac1918e99d170882ee8d38b61decd099d" target="_top" xlink:title=" ">
<polygon fill="white" stroke="#666666" points="909,-30 745,-30 745,0 909,0 909,-30"/>
<text text-anchor="start" x="753" y="-18" font-family="Helvetica,sans-Serif" font-size="10.00">asge::network::EngineProtocol</text>
<text text-anchor="middle" x="827" y="-7" font-family="Helvetica,sans-Serif" font-size="10.00">::sendEntityDestroy</text>
</a>
</g>
</g>
<!-- Node1&#45;&gt;Node2 -->
<g id="edge1_Node000001_Node000002" class="edge">
<title>Node1&#45;&gt;Node2</title>
<g id="a_edge1_Node000001_Node000002"><a xlink:title=" ">
<path fill="none" stroke="#63b8ff" d="M934.79,-15C926.2,-15 917.63,-15 909.3,-15"/>
<polygon fill="#63b8ff" stroke="#63b8ff" points="934.87,-18.5 944.87,-15 934.87,-11.5 934.87,-18.5"/>
</a>
</g>
</g>
<!-- Node3 -->
<g id="Node000003" class="node">
<title>Node3</title>
<g id="a_Node000003"><a xlink:href="classasge_1_1world_1_1systems_1_1CollisionWorld.html#a7c896cc156887f9009e2423c87c9142e" target="_top" xlink:title="Applies collision side effects for the entity pair.">
<polygon fill="white" stroke="#666666" points="709,-30 513,-30 513,0 709,0 709,-30"/>
<text text-anchor="start" x="521" y="-18" font-family="Helvetica,sans-Serif" font-size="10.00">asge::world::systems::CollisionWorld</text>
<text text-anchor="middle" x="611" y="-7" font-family="Helvetica,sans-Serif" font-size="10.00">::collisionEffect</text>
</a>
</g>
</g>
<!-- Node2&#45;&gt;Node3 -->
<g id="edge2_Node000002_Node000003" class="edge">
<title>Node2&#45;&gt;Node3</title>
<g id="a_edge2_Node000002_Node000003"><a xlink:title=" ">
<path fill="none" stroke="#63b8ff" d="M734.65,-15C726.27,-15 717.76,-15 709.33,-15"/>
<polygon fill="#63b8ff" stroke="#63b8ff" points="734.79,-18.5 744.79,-15 734.79,-11.5 734.79,-18.5"/>
</a>
</g>
</g>
<!-- Node4 -->
<g id="Node000004" class="node">
<title>Node4</title>
<g id="a_Node000004"><a xlink:href="classasge_1_1world_1_1systems_1_1CollisionWorld.html#a0ce7df174a3ec469447bbaa40258b964" target="_top" xlink:title="Detects collisions and triggers collision effects.">
<polygon fill="white" stroke="#666666" points="477,-30 281,-30 281,0 477,0 477,-30"/>
<text text-anchor="start" x="289" y="-18" font-family="Helvetica,sans-Serif" font-size="10.00">asge::world::systems::CollisionWorld</text>
<text text-anchor="middle" x="379" y="-7" font-family="Helvetica,sans-Serif" font-size="10.00">::checkCollisions</text>
</a>
</g>
</g>
<!-- Node3&#45;&gt;Node4 -->
<g id="edge3_Node000003_Node000004" class="edge">
<title>Node3&#45;&gt;Node4</title>
<g id="a_edge3_Node000003_Node000004"><a xlink:title=" ">
<path fill="none" stroke="#63b8ff" d="M502.53,-15C494.09,-15 485.6,-15 477.23,-15"/>
<polygon fill="#63b8ff" stroke="#63b8ff" points="502.79,-18.5 512.79,-15 502.79,-11.5 502.79,-18.5"/>
</a>
</g>
</g>
<!-- Node5 -->
<g id="Node000005" class="node">
<title>Node5</title>
<g id="a_Node000005"><a xlink:href="classasge_1_1world_1_1systems_1_1CollisionSystem.html#a5dfdfa3306f0e6817e0e276967095318" target="_top" xlink:title="Evaluates collisions for all tracked entities.">
<polygon fill="white" stroke="#666666" points="245,-24.5 0,-24.5 0,-5.5 245,-5.5 245,-24.5"/>
<text text-anchor="middle" x="122.5" y="-12.5" font-family="Helvetica,sans-Serif" font-size="10.00">asge::world::systems::CollisionSystem::update</text>
</a>
</g>
</g>
<!-- Node4&#45;&gt;Node5 -->
<g id="edge4_Node000004_Node000005" class="edge">
<title>Node4&#45;&gt;Node5</title>
<g id="a_edge4_Node000004_Node000005"><a xlink:title=" ">
<path fill="none" stroke="#63b8ff" d="M270.52,-15C262.12,-15 253.6,-15 245.11,-15"/>
<polygon fill="#63b8ff" stroke="#63b8ff" points="270.7,-18.5 280.7,-15 270.7,-11.5 270.7,-18.5"/>
</a>
</g>
</g>
</g>
</svg>
