<?xml version="1.0" encoding="UTF-8" standalone="no"?>
<!DOCTYPE svg PUBLIC "-//W3C//DTD SVG 1.1//EN"
 "http://www.w3.org/Graphics/SVG/1.1/DTD/svg11.dtd">
<!-- Generated by graphviz version 2.43.0 (0)
 -->
<!-- Title: EventManager.hpp Pages: 1 -->
<!--zoomable 137 -->

<svg id="main" version="1.1" xmlns="http://www.w3.org/2000/svg" xmlns:xlink="http://www.w3.org/1999/xlink" xml:space="preserve" onload="init(evt)">
<style type="text/css"><![CDATA[
.node, .edge {opacity: 0.7;}
.node.selected, .edge.selected {opacity: 1;}
.edge:hover path { stroke: red; }
.edge:hover polygon { stroke: red; fill: red; }
]]></style>

<defs>
  <circle id="rim" cx="0" cy="0" r="7"/>
  <circle id="rim2" cx="0" cy="0" r="3.5"/>
  <g id="zoomPlus">
    <use xlink:href="#rim" fill="#404040"><set attributeName="fill" to="#808080" begin="zoomplus.mouseover" end="zoomplus.mouseout"/></use>
    <path d="M-4,0h8M0,-4v8" fill="none" stroke="white" stroke-width="1.5" pointer-events="none"/>
  </g>
  <g id="zoomMin">
    <use xlink:href="#rim" fill="#404040"><set attributeName="fill" to="#808080" begin="zoomminus.mouseover" end="zoomminus.mouseout"/></use>
    <path d="M-4,0h8" fill="none" stroke="white" stroke-width="1.5" pointer-events="none"/>
  </g>
  <g id="arrowUp" transform="translate(30 24)">
    <use xlink:href="#rim"/>
    <path pointer-events="none" fill="none" stroke="white" stroke-width="1.5" d="M0,-3.0v7 M-2.5,-0.5L0,-3.0L2.5,-0.5"/>
  </g>
  <g id="arrowRight" transform="rotate(90) translate(36 -43)">
    <use xlink:href="#rim"/>
    <path pointer-events="none" fill="none" stroke="white" stroke-width="1.5" d="M0,-3.0v7 M-2.5,-0.5L0,-3.0L2.5,-0.5"/>
  </g>
  <g id="arrowDown" transform="rotate(180) translate(-30 -48)">
    <use xlink:href="#rim"/>
    <path pointer-events="none" fill="none" stroke="white" stroke-width="1.5" d="M0,-3.0v7 M-2.5,-0.5L0,-3.0L2.5,-0.5"/>
  </g>
  <g id="arrowLeft" transform="rotate(270) translate(-36 17)">
    <use xlink:href="#rim"/>
    <path pointer-events="none" fill="none" stroke="white" stroke-width="1.5" d="M0,-3.0v7 M-2.5,-0.5L0,-3.0L2.5,-0.5"/>
  </g>
  <g id="resetDef">
    <use xlink:href="#rim2" fill="#404040"><set attributeName="fill" to="#808080" begin="reset.mouseover" end="reset.mouseout"/></use>
  </g>
</defs>
<script type="application/ecmascript">
var viewWidth = 702;
var viewHeight = 137;
var sectionId = 'dynsection-0';
</script>
<script type="application/ecmascript" xlink:href="svg.min.js"/>
<svg id="graph" class="graph">
<g id="viewport">
<title>EventManager.hpp</title>
<!-- Node1 -->
<g id="Node000001" class="node">
<title>Node1</title>
<g id="a_Node000001"><a xlink:title="Concrete event manager implementing IEvent using a deferred queue.">
<polygon fill="#999999" stroke="#666666" points="480.5,-129 373.5,-129 373.5,-110 480.5,-110 480.5,-129"/>
<text text-anchor="middle" x="427" y="-117" font-family="Helvetica,sans-Serif" font-size="10.00">EventManager.hpp</text>
</a>
</g>
</g>
<!-- Node2 -->
<g id="Node000002" class="node">
<title>Node2</title>
<g id="a_Node000002"><a xlink:href="IEvent_8hpp.html" target="_top" xlink:title="Abstract event bus interface used by the engine.">
<polygon fill="white" stroke="#666666" points="185,-74 117,-74 117,-55 185,-55 185,-74"/>
<text text-anchor="middle" x="151" y="-62" font-family="Helvetica,sans-Serif" font-size="10.00">IEvent.hpp</text>
</a>
</g>
</g>
<!-- Node1&#45;&gt;Node2 -->
<g id="edge1_Node000001_Node000002" class="edge">
<title>Node1&#45;&gt;Node2</title>
<g id="a_edge1_Node000001_Node000002"><a xlink:title=" ">
<path fill="none" stroke="#63b8ff" d="M381.88,-109.97C337.04,-101.48 266.03,-87.97 195.25,-74.23"/>
<polygon fill="#63b8ff" stroke="#63b8ff" points="195.75,-70.76 185.26,-72.29 194.41,-77.64 195.75,-70.76"/>
</a>
</g>
</g>
<!-- Node7 -->
<g id="Node000007" class="node">
<title>Node7</title>
<g id="a_Node000007"><a xlink:href="IDebug_8hpp.html" target="_top" xlink:title="Interface defining the debugging system for the ASGE engine.">
<polygon fill="white" stroke="#666666" points="317,-74 203,-74 203,-55 317,-55 317,-74"/>
<text text-anchor="middle" x="260" y="-62" font-family="Helvetica,sans-Serif" font-size="10.00">../debug/IDebug.hpp</text>
</a>
</g>
</g>
<!-- Node1&#45;&gt;Node7 -->
<g id="edge6_Node000001_Node000007" class="edge">
<title>Node1&#45;&gt;Node7</title>
<g id="a_edge6_Node000001_Node000007"><a xlink:title=" ">
<path fill="none" stroke="#63b8ff" d="M400.17,-109.98C372.13,-101.09 327.95,-87.07 296.7,-77.15"/>
<polygon fill="#63b8ff" stroke="#63b8ff" points="297.63,-73.77 287.04,-74.08 295.51,-80.44 297.63,-73.77"/>
</a>
</g>
</g>
<!-- Node9 -->
<g id="Node000009" class="node">
<title>Node9</title>
<g id="a_Node000009"><a xlink:title=" ">
<polygon fill="#e0e0e0" stroke="#999999" points="385,-74 335,-74 335,-55 385,-55 385,-74"/>
<text text-anchor="middle" x="360" y="-62" font-family="Helvetica,sans-Serif" font-size="10.00">atomic</text>
</a>
</g>
</g>
<!-- Node1&#45;&gt;Node9 -->
<g id="edge9_Node000001_Node000009" class="edge">
<title>Node1&#45;&gt;Node9</title>
<g id="a_edge9_Node000001_Node000009"><a xlink:title=" ">
<path fill="none" stroke="#63b8ff" d="M416.24,-109.98C406.23,-102.07 391.11,-90.11 379.07,-80.58"/>
<polygon fill="#63b8ff" stroke="#63b8ff" points="380.97,-77.63 370.96,-74.17 376.63,-83.12 380.97,-77.63"/>
</a>
</g>
</g>
<!-- Node10 -->
<g id="Node000010" class="node">
<title>Node10</title>
<g id="a_Node000010"><a xlink:title=" ">
<polygon fill="#e0e0e0" stroke="#999999" points="450.5,-74 403.5,-74 403.5,-55 450.5,-55 450.5,-74"/>
<text text-anchor="middle" x="427" y="-62" font-family="Helvetica,sans-Serif" font-size="10.00">deque</text>
</a>
</g>
</g>
<!-- Node1&#45;&gt;Node10 -->
<g id="edge10_Node000001_Node000010" class="edge">
<title>Node1&#45;&gt;Node10</title>
<g id="a_edge10_Node000001_Node000010"><a xlink:title=" ">
<path fill="none" stroke="#63b8ff" d="M427,-109.75C427,-102.8 427,-92.85 427,-84.13"/>
<polygon fill="#63b8ff" stroke="#63b8ff" points="430.5,-84.09 427,-74.09 423.5,-84.09 430.5,-84.09"/>
</a>
</g>
</g>
<!-- Node11 -->
<g id="Node000011" class="node">
<title>Node11</title>
<g id="a_Node000011"><a xlink:title=" ">
<polygon fill="#e0e0e0" stroke="#999999" points="517,-74 469,-74 469,-55 517,-55 517,-74"/>
<text text-anchor="middle" x="493" y="-62" font-family="Helvetica,sans-Serif" font-size="10.00">mutex</text>
</a>
</g>
</g>
<!-- Node1&#45;&gt;Node11 -->
<g id="edge11_Node000001_Node000011" class="edge">
<title>Node1&#45;&gt;Node11</title>
<g id="a_edge11_Node000001_Node000011"><a xlink:title=" ">
<path fill="none" stroke="#63b8ff" d="M437.6,-109.98C447.46,-102.07 462.35,-90.11 474.22,-80.58"/>
<polygon fill="#63b8ff" stroke="#63b8ff" points="476.6,-83.16 482.2,-74.17 472.21,-77.7 476.6,-83.16"/>
</a>
</g>
</g>
<!-- Node12 -->
<g id="Node000012" class="node">
<title>Node12</title>
<g id="a_Node000012"><a xlink:title=" ">
<polygon fill="#e0e0e0" stroke="#999999" points="628.5,-74 535.5,-74 535.5,-55 628.5,-55 628.5,-74"/>
<text text-anchor="middle" x="582" y="-62" font-family="Helvetica,sans-Serif" font-size="10.00">unordered_map</text>
</a>
</g>
</g>
<!-- Node1&#45;&gt;Node12 -->
<g id="edge12_Node000001_Node000012" class="edge">
<title>Node1&#45;&gt;Node12</title>
<g id="a_edge12_Node000001_Node000012"><a xlink:title=" ">
<path fill="none" stroke="#63b8ff" d="M451.9,-109.98C477.7,-101.16 518.22,-87.31 547.18,-77.41"/>
<polygon fill="#63b8ff" stroke="#63b8ff" points="548.57,-80.63 556.9,-74.08 546.31,-74.01 548.57,-80.63"/>
</a>
</g>
</g>
<!-- Node13 -->
<g id="Node000013" class="node">
<title>Node13</title>
<g id="a_Node000013"><a xlink:title=" ">
<polygon fill="#e0e0e0" stroke="#999999" points="693.5,-74 646.5,-74 646.5,-55 693.5,-55 693.5,-74"/>
<text text-anchor="middle" x="670" y="-62" font-family="Helvetica,sans-Serif" font-size="10.00">vector</text>
</a>
</g>
</g>
<!-- Node1&#45;&gt;Node13 -->
<g id="edge13_Node000001_Node000013" class="edge">
<title>Node1&#45;&gt;Node13</title>
<g id="a_edge13_Node000001_Node000013"><a xlink:title=" ">
<path fill="none" stroke="#63b8ff" d="M470.79,-109.95C511.4,-101.87 573.73,-89.08 636.24,-74.33"/>
<polygon fill="#63b8ff" stroke="#63b8ff" points="637.35,-77.67 646.27,-71.95 635.73,-70.86 637.35,-77.67"/>
</a>
</g>
</g>
<!-- Node3 -->
<g id="Node000003" class="node">
<title>Node3</title>
<g id="a_Node000003"><a xlink:title=" ">
<polygon fill="#e0e0e0" stroke="#999999" points="50,-19 0,-19 0,0 50,0 50,-19"/>
<text text-anchor="middle" x="25" y="-7" font-family="Helvetica,sans-Serif" font-size="10.00">cstdint</text>
</a>
</g>
</g>
<!-- Node2&#45;&gt;Node3 -->
<g id="edge2_Node000002_Node000003" class="edge">
<title>Node2&#45;&gt;Node3</title>
<g id="a_edge2_Node000002_Node000003"><a xlink:title=" ">
<path fill="none" stroke="#63b8ff" d="M130.76,-54.98C110.3,-46.38 78.47,-32.99 55.07,-23.15"/>
<polygon fill="#63b8ff" stroke="#63b8ff" points="56.19,-19.82 45.61,-19.17 53.47,-26.27 56.19,-19.82"/>
</a>
</g>
</g>
<!-- Node4 -->
<g id="Node000004" class="node">
<title>Node4</title>
<g id="a_Node000004"><a xlink:title=" ">
<polygon fill="#e0e0e0" stroke="#999999" points="133.5,-19 68.5,-19 68.5,0 133.5,0 133.5,-19"/>
<text text-anchor="middle" x="101" y="-7" font-family="Helvetica,sans-Serif" font-size="10.00">functional</text>
</a>
</g>
</g>
<!-- Node2&#45;&gt;Node4 -->
<g id="edge3_Node000002_Node000004" class="edge">
<title>Node2&#45;&gt;Node4</title>
<g id="a_edge3_Node000002_Node000004"><a xlink:title=" ">
<path fill="none" stroke="#63b8ff" d="M142.74,-54.75C135.54,-47.11 124.89,-35.82 116.15,-26.56"/>
<polygon fill="#63b8ff" stroke="#63b8ff" points="118.51,-23.96 109.1,-19.09 113.42,-28.76 118.51,-23.96"/>
</a>
</g>
</g>
<!-- Node5 -->
<g id="Node000005" class="node">
<title>Node5</title>
<g id="a_Node000005"><a xlink:title=" ">
<polygon fill="#e0e0e0" stroke="#999999" points="259,-19 215,-19 215,0 259,0 259,-19"/>
<text text-anchor="middle" x="237" y="-7" font-family="Helvetica,sans-Serif" font-size="10.00">string</text>
</a>
</g>
</g>
<!-- Node2&#45;&gt;Node5 -->
<g id="edge4_Node000002_Node000005" class="edge">
<title>Node2&#45;&gt;Node5</title>
<g id="a_edge4_Node000002_Node000005"><a xlink:title=" ">
<path fill="none" stroke="#63b8ff" d="M164.82,-54.98C178.15,-46.77 198.58,-34.18 214.31,-24.49"/>
<polygon fill="#63b8ff" stroke="#63b8ff" points="216.25,-27.4 222.93,-19.17 212.58,-21.44 216.25,-27.4"/>
</a>
</g>
</g>
<!-- Node6 -->
<g id="Node000006" class="node">
<title>Node6</title>
<g id="a_Node000006"><a xlink:title=" ">
<polygon fill="#e0e0e0" stroke="#999999" points="196.5,-19 151.5,-19 151.5,0 196.5,0 196.5,-19"/>
<text text-anchor="middle" x="174" y="-7" font-family="Helvetica,sans-Serif" font-size="10.00">utility</text>
</a>
</g>
</g>
<!-- Node2&#45;&gt;Node6 -->
<g id="edge5_Node000002_Node000006" class="edge">
<title>Node2&#45;&gt;Node6</title>
<g id="a_edge5_Node000002_Node000006"><a xlink:title=" ">
<path fill="none" stroke="#63b8ff" d="M154.8,-54.75C157.91,-47.57 162.42,-37.18 166.29,-28.27"/>
<polygon fill="#63b8ff" stroke="#63b8ff" points="169.5,-29.66 170.27,-19.09 163.08,-26.87 169.5,-29.66"/>
</a>
</g>
</g>
<!-- Node7&#45;&gt;Node5 -->
<g id="edge7_Node000007_Node000005" class="edge">
<title>Node7&#45;&gt;Node5</title>
<g id="a_edge7_Node000007_Node000005"><a xlink:title=" ">
<path fill="none" stroke="#63b8ff" d="M256.2,-54.75C253.09,-47.57 248.58,-37.18 244.71,-28.27"/>
<polygon fill="#63b8ff" stroke="#63b8ff" points="247.92,-26.87 240.73,-19.09 241.5,-29.66 247.92,-26.87"/>
</a>
</g>
</g>
<!-- Node8 -->
<g id="Node000008" class="node">
<title>Node8</title>
<g id="a_Node000008"><a xlink:href="DebugTypes_8hpp.html" target="_top" xlink:title="Defines the different severity levels used for debugging and logging.">
<polygon fill="white" stroke="#666666" points="465,-19 277,-19 277,0 465,0 465,-19"/>
<text text-anchor="middle" x="371" y="-7" font-family="Helvetica,sans-Serif" font-size="10.00">../../includes/types/DebugTypes.hpp</text>
</a>
</g>
</g>
<!-- Node7&#45;&gt;Node8 -->
<g id="edge8_Node000007_Node000008" class="edge">
<title>Node7&#45;&gt;Node8</title>
<g id="a_edge8_Node000007_Node000008"><a xlink:title=" ">
<path fill="none" stroke="#63b8ff" d="M277.83,-54.98C295.61,-46.5 323.15,-33.35 343.68,-23.54"/>
<polygon fill="#63b8ff" stroke="#63b8ff" points="345.33,-26.64 352.84,-19.17 342.31,-20.32 345.33,-26.64"/>
</a>
</g>
</g>
</g>
</svg>

<g id="navigator" transform="translate(0 0)" fill="#404254">
  <rect fill="#f2f5e9" fill-opacity="0.5" stroke="#606060" stroke-width=".5" x="0" y="0" width="60" height="60"/>
  <use id="zoomplus" xlink:href="#zoomPlus" x="17" y="9" onmousedown="handleZoom(evt,'in')"/>
  <use id="zoomminus" xlink:href="#zoomMin" x="42" y="9" onmousedown="handleZoom(evt,'out')"/>
  <use id="reset" xlink:href="#resetDef" x="30" y="36" onmousedown="handleReset()"/>
   <use id="arrowup" xlink:href="#arrowUp" x="0" y="0" onmousedown="handlePan(0,-1)"/>
  <use id="arrowright" xlink:href="#arrowRight" x="0" y="0" onmousedown="handlePan(1,0)"/>
  <use id="arrowdown" xlink:href="#arrowDown" x="0" y="0" onmousedown="handlePan(0,1)"/>
  <use id="arrowleft" xlink:href="#arrowLeft" x="0" y="0" onmousedown="handlePan(-1,0)"/>
</g>
<svg viewBox="0 0 15 15" width="100%" height="30px" preserveAspectRatio="xMaxYMin meet">
 <g id="arrow_out" transform="scale(0.3 0.3)">
  <a xlink:href="EventManager_8hpp__incl_org.svg" target="_base">
   <rect id="button" ry="5" rx="5" y="6" x="6" height="38" width="38"
        fill="#f2f5e9" fill-opacity="0.5" stroke="#606060" stroke-width="1.0"/>
   <path id="arrow"
     d="M 11.500037,31.436501 C 11.940474,20.09759 22.043105,11.32322 32.158766,21.979434 L 37.068811,17.246167 C 37.068811,17.246167 37.088388,32 37.088388,32 L 22.160133,31.978069 C 22.160133,31.978069 26.997745,27.140456 26.997745,27.140456 C 18.528582,18.264221 13.291696,25.230495 11.500037,31.436501 z"
     style="fill:#404040;"/>
  </a>
 </g>
</svg>

<style type='text/css'>
<![CDATA[
[data-mouse-over-selected='false'] { opacity: 0.7; }
[data-mouse-over-selected='true']  { opacity: 1.0; }
]]>
</style>
<script type="application/ecmascript"><![CDATA[
document.addEventListener('DOMContentLoaded', (event) => {
  highlightEdges();
  highlightAdjacentNodes();
});
]]></script>
</svg>
