<?xml version="1.0" encoding="UTF-8" standalone="no"?>
<!DOCTYPE svg PUBLIC "-//W3C//DTD SVG 1.1//EN"
 "http://www.w3.org/Graphics/SVG/1.1/DTD/svg11.dtd">
<!-- Generated by graphviz version 2.43.0 (0)
 -->
<!-- Title: LoopbackChannel.hpp Pages: 1 -->
<svg width="382pt" height="137pt"
 viewBox="0.00 0.00 382.00 137.00" xmlns="http://www.w3.org/2000/svg" xmlns:xlink="http://www.w3.org/1999/xlink">
<g id="graph0" class="graph" transform="scale(1 1) rotate(0) translate(4 133)">
<title>LoopbackChannel.hpp</title>
<!-- Node1 -->
<g id="Node000001" class="node">
<title>Node1</title>
<g id="a_Node000001"><a xlink:title="In&#45;memory self&#45;looping implementation of NetworkChannel.">
<polygon fill="#999999" stroke="#666666" points="294,-129 170,-129 170,-110 294,-110 294,-129"/>
<text text-anchor="middle" x="232" y="-117" font-family="Helvetica,sans-Serif" font-size="10.00">LoopbackChannel.hpp</text>
</a>
</g>
</g>
<!-- Node2 -->
<g id="Node000002" class="node">
<title>Node2</title>
<g id="a_Node000002"><a xlink:href="NetworkChannel_8hpp.html" target="_top" xlink:title="Defines the low&#45;level abstract network channel interface.">
<polygon fill="white" stroke="#666666" points="165.5,-74 46.5,-74 46.5,-55 165.5,-55 165.5,-74"/>
<text text-anchor="middle" x="106" y="-62" font-family="Helvetica,sans-Serif" font-size="10.00">NetworkChannel.hpp</text>
</a>
</g>
</g>
<!-- Node1&#45;&gt;Node2 -->
<g id="edge1_Node000001_Node000002" class="edge">
<title>Node1&#45;&gt;Node2</title>
<g id="a_edge1_Node000001_Node000002"><a xlink:title=" ">
<path fill="none" stroke="#63b8ff" d="M211.76,-109.98C191.3,-101.38 159.47,-87.99 136.07,-78.15"/>
<polygon fill="#63b8ff" stroke="#63b8ff" points="137.19,-74.82 126.61,-74.17 134.47,-81.27 137.19,-74.82"/>
</a>
</g>
</g>
<!-- Node5 -->
<g id="Node000005" class="node">
<title>Node5</title>
<g id="a_Node000005"><a xlink:title=" ">
<polygon fill="#e0e0e0" stroke="#999999" points="196,-19 152,-19 152,0 196,0 196,-19"/>
<text text-anchor="middle" x="174" y="-7" font-family="Helvetica,sans-Serif" font-size="10.00">string</text>
</a>
</g>
</g>
<!-- Node1&#45;&gt;Node5 -->
<g id="edge8_Node000001_Node000005" class="edge">
<title>Node1&#45;&gt;Node5</title>
<g id="a_edge8_Node000001_Node000005"><a xlink:title=" ">
<path fill="none" stroke="#63b8ff" d="M227.25,-109.66C217.69,-91.85 195.95,-51.37 183.4,-28.01"/>
<polygon fill="#63b8ff" stroke="#63b8ff" points="186.46,-26.31 178.65,-19.16 180.3,-29.62 186.46,-26.31"/>
</a>
</g>
</g>
<!-- Node6 -->
<g id="Node000006" class="node">
<title>Node6</title>
<g id="a_Node000006"><a xlink:title=" ">
<polygon fill="#e0e0e0" stroke="#999999" points="261.5,-19 214.5,-19 214.5,0 261.5,0 261.5,-19"/>
<text text-anchor="middle" x="238" y="-7" font-family="Helvetica,sans-Serif" font-size="10.00">vector</text>
</a>
</g>
</g>
<!-- Node1&#45;&gt;Node6 -->
<g id="edge9_Node000001_Node000006" class="edge">
<title>Node1&#45;&gt;Node6</title>
<g id="a_edge9_Node000001_Node000006"><a xlink:title=" ">
<path fill="none" stroke="#63b8ff" d="M232.49,-109.66C233.46,-92.17 235.65,-52.8 236.96,-29.27"/>
<polygon fill="#63b8ff" stroke="#63b8ff" points="240.46,-29.34 237.52,-19.16 233.47,-28.95 240.46,-29.34"/>
</a>
</g>
</g>
<!-- Node7 -->
<g id="Node000007" class="node">
<title>Node7</title>
<g id="a_Node000007"><a xlink:title=" ">
<polygon fill="#e0e0e0" stroke="#999999" points="307.5,-74 260.5,-74 260.5,-55 307.5,-55 307.5,-74"/>
<text text-anchor="middle" x="284" y="-62" font-family="Helvetica,sans-Serif" font-size="10.00">deque</text>
</a>
</g>
</g>
<!-- Node1&#45;&gt;Node7 -->
<g id="edge6_Node000001_Node000007" class="edge">
<title>Node1&#45;&gt;Node7</title>
<g id="a_edge6_Node000001_Node000007"><a xlink:title=" ">
<path fill="none" stroke="#63b8ff" d="M240.59,-109.75C248.16,-102.03 259.38,-90.6 268.51,-81.28"/>
<polygon fill="#63b8ff" stroke="#63b8ff" points="271.07,-83.68 275.57,-74.09 266.07,-78.78 271.07,-83.68"/>
</a>
</g>
</g>
<!-- Node8 -->
<g id="Node000008" class="node">
<title>Node8</title>
<g id="a_Node000008"><a xlink:title=" ">
<polygon fill="#e0e0e0" stroke="#999999" points="374,-74 326,-74 326,-55 374,-55 374,-74"/>
<text text-anchor="middle" x="350" y="-62" font-family="Helvetica,sans-Serif" font-size="10.00">mutex</text>
</a>
</g>
</g>
<!-- Node1&#45;&gt;Node8 -->
<g id="edge7_Node000001_Node000008" class="edge">
<title>Node1&#45;&gt;Node8</title>
<g id="a_edge7_Node000001_Node000008"><a xlink:title=" ">
<path fill="none" stroke="#63b8ff" d="M250.96,-109.98C270.03,-101.42 299.66,-88.11 321.55,-78.28"/>
<polygon fill="#63b8ff" stroke="#63b8ff" points="323.01,-81.46 330.7,-74.17 320.14,-75.07 323.01,-81.46"/>
</a>
</g>
</g>
<!-- Node3 -->
<g id="Node000003" class="node">
<title>Node3</title>
<g id="a_Node000003"><a xlink:title=" ">
<polygon fill="#e0e0e0" stroke="#999999" points="50,-19 0,-19 0,0 50,0 50,-19"/>
<text text-anchor="middle" x="25" y="-7" font-family="Helvetica,sans-Serif" font-size="10.00">cstdint</text>
</a>
</g>
</g>
<!-- Node2&#45;&gt;Node3 -->
<g id="edge2_Node000002_Node000003" class="edge">
<title>Node2&#45;&gt;Node3</title>
<g id="a_edge2_Node000002_Node000003"><a xlink:title=" ">
<path fill="none" stroke="#63b8ff" d="M92.99,-54.98C80.54,-46.84 61.54,-34.41 46.79,-24.76"/>
<polygon fill="#63b8ff" stroke="#63b8ff" points="48.54,-21.72 38.25,-19.17 44.7,-27.57 48.54,-21.72"/>
</a>
</g>
</g>
<!-- Node4 -->
<g id="Node000004" class="node">
<title>Node4</title>
<g id="a_Node000004"><a xlink:title=" ">
<polygon fill="#e0e0e0" stroke="#999999" points="133.5,-19 68.5,-19 68.5,0 133.5,0 133.5,-19"/>
<text text-anchor="middle" x="101" y="-7" font-family="Helvetica,sans-Serif" font-size="10.00">functional</text>
</a>
</g>
</g>
<!-- Node2&#45;&gt;Node4 -->
<g id="edge3_Node000002_Node000004" class="edge">
<title>Node2&#45;&gt;Node4</title>
<g id="a_edge3_Node000002_Node000004"><a xlink:title=" ">
<path fill="none" stroke="#63b8ff" d="M105.17,-54.75C104.52,-47.8 103.58,-37.85 102.76,-29.13"/>
<polygon fill="#63b8ff" stroke="#63b8ff" points="106.23,-28.72 101.81,-19.09 99.27,-29.37 106.23,-28.72"/>
</a>
</g>
</g>
<!-- Node2&#45;&gt;Node5 -->
<g id="edge4_Node000002_Node000005" class="edge">
<title>Node2&#45;&gt;Node5</title>
<g id="a_edge4_Node000002_Node000005"><a xlink:title=" ">
<path fill="none" stroke="#63b8ff" d="M116.93,-54.98C127.08,-47.07 142.42,-35.11 154.65,-25.58"/>
<polygon fill="#63b8ff" stroke="#63b8ff" points="157.14,-28.08 162.88,-19.17 152.84,-22.56 157.14,-28.08"/>
</a>
</g>
</g>
<!-- Node2&#45;&gt;Node6 -->
<g id="edge5_Node000002_Node000006" class="edge">
<title>Node2&#45;&gt;Node6</title>
<g id="a_edge5_Node000002_Node000006"><a xlink:title=" ">
<path fill="none" stroke="#63b8ff" d="M127.21,-54.98C148.73,-46.34 182.28,-32.87 206.83,-23.02"/>
<polygon fill="#63b8ff" stroke="#63b8ff" points="208.43,-26.14 216.41,-19.17 205.82,-19.65 208.43,-26.14"/>
</a>
</g>
</g>
</g>
</svg>
