<?xml version="1.0" encoding="UTF-8" standalone="no"?>
<!DOCTYPE svg PUBLIC "-//W3C//DTD SVG 1.1//EN"
 "http://www.w3.org/Graphics/SVG/1.1/DTD/svg11.dtd">
<!-- Generated by graphviz version 2.43.0 (0)
 -->
<!-- Title: asge::Services::scene Pages: 1 -->
<svg width="586pt" height="115pt"
 viewBox="0.00 0.00 586.00 114.50" xmlns="http://www.w3.org/2000/svg" xmlns:xlink="http://www.w3.org/1999/xlink">
<g id="graph0" class="graph" transform="scale(1 1) rotate(0) translate(4 110.5)">
<title>asge::Services::scene</title>
<!-- Node1 -->
<g id="Node000001" class="node">
<title>Node1</title>
<g id="a_Node000001"><a xlink:title=" ">
<polygon fill="#999999" stroke="#666666" points="578,-56 456,-56 456,-37 578,-37 578,-56"/>
<text text-anchor="middle" x="517" y="-44" font-family="Helvetica,sans-Serif" font-size="10.00">asge::Services::scene</text>
</a>
</g>
</g>
<!-- Node2 -->
<g id="Node000002" class="node">
<title>Node2</title>
<g id="a_Node000002"><a xlink:href="classrtype_1_1client_1_1scene_1_1MenuStage.html#abfbf3c055e6d8093e6a7072dab622efe" target="_top" xlink:title=" ">
<polygon fill="white" stroke="#666666" points="414.5,-96 222.5,-96 222.5,-77 414.5,-77 414.5,-96"/>
<text text-anchor="middle" x="318.5" y="-84" font-family="Helvetica,sans-Serif" font-size="10.00">rtype::client::scene::MenuStage::init</text>
</a>
</g>
</g>
<!-- Node1&#45;&gt;Node2 -->
<g id="edge1_Node000001_Node000002" class="edge">
<title>Node1&#45;&gt;Node2</title>
<g id="a_edge1_Node000001_Node000002"><a xlink:title=" ">
<path fill="none" stroke="#63b8ff" d="M458.8,-58.14C429.36,-64.14 393.94,-71.35 366.18,-77"/>
<polygon fill="#63b8ff" stroke="#63b8ff" points="459.83,-61.51 468.93,-56.08 458.44,-54.65 459.83,-61.51"/>
</a>
</g>
</g>
<!-- Node4 -->
<g id="Node000004" class="node">
<title>Node4</title>
<g id="a_Node000004"><a xlink:href="classrtype_1_1client_1_1scene_1_1OptionsStage.html#af8c5668d6694ca9ba463065aef686fec" target="_top" xlink:title=" ">
<polygon fill="white" stroke="#666666" points="420,-56 217,-56 217,-37 420,-37 420,-56"/>
<text text-anchor="middle" x="318.5" y="-44" font-family="Helvetica,sans-Serif" font-size="10.00">rtype::client::scene::OptionsStage::init</text>
</a>
</g>
</g>
<!-- Node1&#45;&gt;Node4 -->
<g id="edge3_Node000001_Node000004" class="edge">
<title>Node1&#45;&gt;Node4</title>
<g id="a_edge3_Node000001_Node000004"><a xlink:title=" ">
<path fill="none" stroke="#63b8ff" d="M445.9,-46.5C437.51,-46.5 428.82,-46.5 420.1,-46.5"/>
<polygon fill="#63b8ff" stroke="#63b8ff" points="445.98,-50 455.98,-46.5 445.98,-43 445.98,-50"/>
</a>
</g>
</g>
<!-- Node6 -->
<g id="Node000006" class="node">
<title>Node6</title>
<g id="a_Node000006"><a xlink:href="client_2main_8cpp.html#a3c04138a5bfe5d72780bb7e82a18e627" target="_top" xlink:title=" ">
<polygon fill="white" stroke="#666666" points="339,-19 298,-19 298,0 339,0 339,-19"/>
<text text-anchor="middle" x="318.5" y="-7" font-family="Helvetica,sans-Serif" font-size="10.00">main</text>
</a>
</g>
</g>
<!-- Node1&#45;&gt;Node6 -->
<g id="edge5_Node000001_Node000006" class="edge">
<title>Node1&#45;&gt;Node6</title>
<g id="a_edge5_Node000001_Node000006"><a xlink:title=" ">
<path fill="none" stroke="#63b8ff" d="M455.5,-35.11C415.66,-27.61 366.06,-18.27 339.13,-13.2"/>
<polygon fill="#63b8ff" stroke="#63b8ff" points="454.92,-38.56 465.4,-36.97 456.22,-31.68 454.92,-38.56"/>
</a>
</g>
</g>
<!-- Node3 -->
<g id="Node000003" class="node">
<title>Node3</title>
<g id="a_Node000003"><a xlink:href="classrtype_1_1client_1_1scene_1_1MenuStage.html#a92cbb9a8117bfc9031df5bb64ced2538" target="_top" xlink:title=" ">
<polygon fill="white" stroke="#666666" points="175.5,-106.5 5.5,-106.5 5.5,-76.5 175.5,-76.5 175.5,-106.5"/>
<text text-anchor="start" x="13.5" y="-94.5" font-family="Helvetica,sans-Serif" font-size="10.00">rtype::client::scene::MenuStage</text>
<text text-anchor="middle" x="90.5" y="-83.5" font-family="Helvetica,sans-Serif" font-size="10.00">::MenuStage</text>
</a>
</g>
</g>
<!-- Node2&#45;&gt;Node3 -->
<g id="edge2_Node000002_Node000003" class="edge">
<title>Node2&#45;&gt;Node3</title>
<g id="a_edge2_Node000002_Node000003"><a xlink:title=" ">
<path fill="none" stroke="#63b8ff" d="M212.12,-88.83C199.95,-89.1 187.66,-89.37 175.81,-89.63"/>
<polygon fill="#63b8ff" stroke="#63b8ff" points="212.39,-92.33 222.31,-88.61 212.24,-85.33 212.39,-92.33"/>
</a>
</g>
</g>
<!-- Node5 -->
<g id="Node000005" class="node">
<title>Node5</title>
<g id="a_Node000005"><a xlink:href="classrtype_1_1client_1_1scene_1_1OptionsStage.html#aaa61f311c7740685070209d953ea7591" target="_top" xlink:title=" ">
<polygon fill="white" stroke="#666666" points="181,-58.5 0,-58.5 0,-28.5 181,-28.5 181,-58.5"/>
<text text-anchor="start" x="8" y="-46.5" font-family="Helvetica,sans-Serif" font-size="10.00">rtype::client::scene::OptionsStage</text>
<text text-anchor="middle" x="90.5" y="-35.5" font-family="Helvetica,sans-Serif" font-size="10.00">::OptionsStage</text>
</a>
</g>
</g>
<!-- Node4&#45;&gt;Node5 -->
<g id="edge4_Node000004_Node000005" class="edge">
<title>Node4&#45;&gt;Node5</title>
<g id="a_edge4_Node000004_Node000005"><a xlink:title=" ">
<path fill="none" stroke="#63b8ff" d="M206.67,-45.03C198.08,-44.91 189.47,-44.8 181.05,-44.69"/>
<polygon fill="#63b8ff" stroke="#63b8ff" points="206.68,-48.53 216.73,-45.16 206.78,-41.53 206.68,-48.53"/>
</a>
</g>
</g>
</g>
</svg>
